<?xml version="1.0" encoding="utf-8"?>
<!-- Generator: Adobe Illustrator 24.1.1, SVG Export Plug-In . SVG Version: 6.00 Build 0)  -->
<svg version="1.1" id="Layer_1" xmlns="http://www.w3.org/2000/svg" xmlns:xlink="http://www.w3.org/1999/xlink" x="0px" y="0px"
	 viewBox="0 0 48 48" style="enable-background:new 0 0 48 48;" xml:space="preserve">
<style type="text/css">
	.st0{fill:none;stroke:#00ABC7;stroke-width:1.0656;stroke-linecap:round;stroke-linejoin:round;stroke-miterlimit:10;}
	.st1{fill:none;stroke:#55565B;stroke-width:1.4208;stroke-linecap:round;stroke-linejoin:round;stroke-miterlimit:10;}
	.st2{fill:none;stroke:#00ABC7;stroke-width:1.4208;stroke-linecap:round;stroke-linejoin:round;stroke-miterlimit:10;}
</style>
<g>
	<g>
		<polygon class="st0" points="40.9,23.8 43.1,26 29.8,39.4 25.3,39.4 25.3,34.9 38.7,21.6 		"/>
		<line class="st0" x1="25.3" y1="34.9" x2="29.8" y2="39.4"/>
		<line class="st0" x1="36" y1="24.2" x2="40.5" y2="28.6"/>
		<line class="st0" x1="38.3" y1="26.4" x2="27.5" y2="37.1"/>
	</g>
	<g>
		<path class="st1" d="M4.9,19V5.8c0-0.5,0.4-0.9,0.9-0.9h19.4"/>
		<line class="st2" x1="4.9" y1="31.5" x2="4.9" y2="22.5"/>
		<path class="st1" d="M33.3,39.4v2.9c0,0.5-0.4,0.9-0.9,0.9H5.8c-0.5,0-0.9-0.4-0.9-0.9V35"/>
		<path class="st2" d="M33.3,34.6"/>
		<path class="st2" d="M33.3,28.1"/>
		<line class="st1" x1="33.3" y1="11.9" x2="33.3" y2="23.2"/>
		<path class="st2" d="M28.8,4.9h3.7c0.5,0,0.9,0.4,0.9,0.9v2.6"/>
		<line class="st1" x1="9.8" y1="11.4" x2="28.4" y2="11.4"/>
		<line class="st1" x1="9.8" y1="17.6" x2="28.4" y2="17.6"/>
		<line class="st1" x1="9.8" y1="23.9" x2="28.4" y2="23.9"/>
		<line class="st1" x1="9.8" y1="30.1" x2="25.2" y2="30.1"/>
		<line class="st1" x1="9.8" y1="36.4" x2="21.8" y2="36.4"/>
	</g>
</g>
</svg>
